<svg xmlns="http://www.w3.org/2000/svg" xmlns:xlink="http://www.w3.org/1999/xlink" id="svg5466" width="89.257" height="32" version="1.1" viewBox="0 0 83.68 30"><defs id="defs5468"><linearGradient id="linearGradient6001-5" x1="895.4" x2="895.4" y1="-357.17" y2="-327.83" gradientTransform="translate(-31.905 97.852)" gradientUnits="userSpaceOnUse"><stop id="stop5439" offset="0" stop-color="#bdbdc1"/><stop id="stop5441" offset="1" stop-color="#f4f4f4"/></linearGradient><linearGradient id="linearGradient6003-6" x1="892.44" x2="892.44" y1="-366.35" y2="-392.51" gradientTransform="matrix(1 0 0 .78494 -34.597 55.388)" gradientUnits="userSpaceOnUse"><stop id="stop5486" offset="0" stop-color="#838383"/><stop id="stop5492" offset=".538" stop-color="#979797"/><stop id="stop5488" offset="1" stop-color="#a7a7a7"/></linearGradient><linearGradient id="linearGradient6436" x1="913.38" x2="913.4" y1="-349.49" y2="-334.29" gradientTransform="matrix(.78723 0 0 .78723 192.99 -72.172)" gradientUnits="userSpaceOnUse" xlink:href="#linearGradient5528"/><linearGradient id="linearGradient5528"><stop id="stop5530" offset="0" stop-color="#3d3d3d" stop-opacity=".863"/><stop id="stop5532" offset="1" stop-color="#fff" stop-opacity="0"/></linearGradient><radialGradient id="radialGradient5502-17-9" cx="916.16" cy="-341.87" r="7.559" gradientTransform="matrix(4.5735 -.17574 .13786 3.5876 -3230.9 1043.7)" gradientUnits="userSpaceOnUse" xlink:href="#linearGradient5496"/><linearGradient id="linearGradient5496"><stop id="stop5498" offset="0" stop-color="#fff" stop-opacity="0"/><stop id="stop5550" offset=".175" stop-color="#fff" stop-opacity=".104"/><stop id="stop5552" offset=".393" stop-color="#fff" stop-opacity=".922"/><stop id="stop5500" offset="1" stop-color="#fff"/></linearGradient></defs><g id="layer1" transform="translate(-126.73 -454.51)"><g id="g6480" transform="translate(-692.33 714.68)"><g><path id="rect5195-5-0-1-9-6" fill="url(#linearGradient6001-5)" d="m826.67-260.18c-4.201 0.00074-7.606 3.8877-7.6055 8.6819v12.639c0.00065 4.7933 3.4054 8.6788 7.6055 8.6795h68.469c4.2001-0.00073 7.6049-3.8862 7.6055-8.6795v-12.639c0.00053-4.7942-3.4046-8.6812-7.6055-8.6819z" style="color-rendering:auto;text-decoration-color:#000;color:#000;isolation:auto;mix-blend-mode:normal;shape-rendering:auto;solid-color:#000;block-progression:tb;text-decoration-line:none;text-decoration-style:solid;image-rendering:auto;white-space:normal;text-indent:0;text-transform:none"/><path id="rect5195-5-0-1-4-0-6" fill="#585859" d="m826.67-257.4c-4.201 0.00062-7.606 3.2632-7.6055 7.2872v10.608c0.00065 4.0232 3.4054 7.2845 7.6055 7.2851h68.469c4.2001-0.00062 7.6049-3.2619 7.6055-7.2851v-10.608c0.00053-4.024-3.4046-7.2866-7.6055-7.2872z" style="color-rendering:auto;text-decoration-color:#000;color:#000;isolation:auto;mix-blend-mode:normal;shape-rendering:auto;solid-color:#000;block-progression:tb;text-decoration-line:none;text-decoration-style:solid;image-rendering:auto;white-space:normal;text-indent:0;text-transform:none"/><path id="rect5195-5-0-1-4-3-0-8" fill="url(#linearGradient6003-6)" d="m826.67-253.64c-4.201 0.00052-7.606 2.7592-7.6055 6.1617v8.9697c0.00065 3.4018 3.4054 6.1594 7.6055 6.16h68.469c4.2001-0.00052 7.6049-2.7581 7.6055-6.16v-8.9697c0.00053-3.4025-3.4046-6.1612-7.6055-6.1617z" style="color-rendering:auto;text-decoration-color:#000;color:#000;isolation:auto;mix-blend-mode:normal;shape-rendering:auto;solid-color:#000;block-progression:tb;text-decoration-line:none;text-decoration-style:solid;image-rendering:auto;white-space:normal;text-indent:0;text-transform:none"/></g><g id="g5554-2-1" transform="translate(-29.817 95.669)"><circle id="path5494-3-7-8" cx="911.68" cy="-340.85" r="6.012" fill="url(#linearGradient6436)"/><circle id="path5494-1-9" cx="911.68" cy="-340.85" r="5.394" fill="url(#radialGradient5502-17-9)"/></g><g id="g5554-8-6-2" transform="translate(-71.652 95.669)"><circle id="path5494-3-9-2-9" cx="911.68" cy="-340.85" r="6.012" fill="url(#linearGradient6436)"/><circle id="path5494-7-0-5" cx="911.68" cy="-340.85" r="5.394" fill="url(#radialGradient5502-17-9)"/></g><path id="rect5195-5-0-1-4-0-4-4" fill="#ff6e4a" fill-opacity=".391" d="m826.67-257.4c-4.201 0.00062-7.606 3.2632-7.6055 7.2872v10.608c0.00065 4.0232 3.4054 7.2845 7.6055 7.2851h68.469c4.2001-0.00062 7.6049-3.2619 7.6055-7.2851v-10.608c0.00053-4.024-3.4046-7.2866-7.6055-7.2872z" style="color-rendering:auto;text-decoration-color:#000;color:#000;isolation:auto;mix-blend-mode:normal;shape-rendering:auto;solid-color:#000;block-progression:tb;text-decoration-line:none;text-decoration-style:solid;image-rendering:auto;white-space:normal;text-indent:0;text-transform:none"/></g></g></svg>